<mxfile host="app.diagrams.net" agent="Mozilla/5.0 (Windows NT 10.0; Win64; x64) AppleWebKit/537.36 (KHTML, like Gecko) Chrome/126.0.0.0 Safari/537.36" version="24.7.5">
  <diagram name="Page-1" id="iOP9NucEH-zzFqvL8uEB">
    <mxGraphModel dx="1900" dy="1752" grid="1" gridSize="10" guides="1" tooltips="1" connect="1" arrows="1" fold="1" page="1" pageScale="1" pageWidth="850" pageHeight="1100" math="0" shadow="0">
      <root>
        <mxCell id="0" />
        <mxCell id="1" parent="0" />
        <mxCell id="ymEb2g0kcDg-jAVKu9gT-71" style="edgeStyle=orthogonalEdgeStyle;rounded=0;orthogonalLoop=1;jettySize=auto;html=1;entryX=0;entryY=0.5;entryDx=0;entryDy=0;" parent="1" source="ymEb2g0kcDg-jAVKu9gT-15" target="ymEb2g0kcDg-jAVKu9gT-41" edge="1">
          <mxGeometry relative="1" as="geometry" />
        </mxCell>
        <mxCell id="ymEb2g0kcDg-jAVKu9gT-15" value="API GATEWAY" style="swimlane;startSize=0;fontColor=none;noLabel=1;dashed=1;dashPattern=12 12;" parent="1" vertex="1">
          <mxGeometry x="10" y="280" width="205" height="165" as="geometry" />
        </mxCell>
        <mxCell id="ymEb2g0kcDg-jAVKu9gT-3" value="API GATEWAY" style="rounded=1;whiteSpace=wrap;html=1;fillColor=#f5f5f5;fontColor=#333333;strokeColor=#666666;" parent="ymEb2g0kcDg-jAVKu9gT-15" vertex="1">
          <mxGeometry x="20" y="50" width="150" height="60" as="geometry" />
        </mxCell>
        <mxCell id="ymEb2g0kcDg-jAVKu9gT-30" value="&lt;b&gt;Tyk&lt;/b&gt;&lt;div&gt;&lt;b&gt;Api gateway&lt;/b&gt;&lt;/div&gt;" style="text;html=1;align=center;verticalAlign=middle;resizable=0;points=[];autosize=1;strokeColor=none;fillColor=none;" parent="ymEb2g0kcDg-jAVKu9gT-15" vertex="1">
          <mxGeometry x="35" y="125" width="90" height="40" as="geometry" />
        </mxCell>
        <mxCell id="ymEb2g0kcDg-jAVKu9gT-41" value="Post" style="swimlane;startSize=0;rounded=1;shadow=0;fontColor=none;labelBackgroundColor=none;noLabel=1;" parent="1" vertex="1">
          <mxGeometry x="288" y="80" width="340" height="112.5" as="geometry" />
        </mxCell>
        <mxCell id="clGpNB9oHALhCs1MbPwn-31" style="edgeStyle=orthogonalEdgeStyle;rounded=0;orthogonalLoop=1;jettySize=auto;html=1;" parent="ymEb2g0kcDg-jAVKu9gT-41" source="ymEb2g0kcDg-jAVKu9gT-42" edge="1">
          <mxGeometry relative="1" as="geometry">
            <mxPoint x="190" y="136.25" as="targetPoint" />
          </mxGeometry>
        </mxCell>
        <mxCell id="ymEb2g0kcDg-jAVKu9gT-42" value="&lt;b&gt;User Service OAuth JWT&lt;br&gt;&lt;/b&gt;" style="text;html=1;align=center;verticalAlign=middle;resizable=0;points=[];autosize=1;strokeColor=none;fillColor=none;" parent="ymEb2g0kcDg-jAVKu9gT-41" vertex="1">
          <mxGeometry x="110" y="82.5" width="160" height="30" as="geometry" />
        </mxCell>
        <mxCell id="ymEb2g0kcDg-jAVKu9gT-18" value="&lt;div&gt;Identity&amp;nbsp; Service&lt;/div&gt;&lt;div&gt;SSO Auth &lt;br&gt;&lt;/div&gt;" style="rounded=1;whiteSpace=wrap;html=1;fillColor=#e1d5e7;strokeColor=#9673a6;" parent="ymEb2g0kcDg-jAVKu9gT-41" vertex="1">
          <mxGeometry x="20" y="26.25" width="170" height="60" as="geometry" />
        </mxCell>
        <mxCell id="ymEb2g0kcDg-jAVKu9gT-20" value="Identity DB" style="shape=cylinder3;whiteSpace=wrap;html=1;boundedLbl=1;backgroundOutline=1;size=15;fillColor=#dae8fc;strokeColor=#6c8ebf;" parent="ymEb2g0kcDg-jAVKu9gT-41" vertex="1">
          <mxGeometry x="240" y="26.25" width="60" height="60" as="geometry" />
        </mxCell>
        <mxCell id="isoSCwNyjUuJ1y2WLRkC-23" style="edgeStyle=orthogonalEdgeStyle;rounded=0;orthogonalLoop=1;jettySize=auto;html=1;entryX=0.217;entryY=0.513;entryDx=0;entryDy=0;entryPerimeter=0;" parent="ymEb2g0kcDg-jAVKu9gT-41" source="ymEb2g0kcDg-jAVKu9gT-18" target="ymEb2g0kcDg-jAVKu9gT-20" edge="1">
          <mxGeometry relative="1" as="geometry" />
        </mxCell>
        <mxCell id="ymEb2g0kcDg-jAVKu9gT-73" value="TỔNG QUAN VNPAY PLUS" style="text;html=1;align=center;verticalAlign=middle;resizable=0;points=[];autosize=1;strokeColor=#b85450;fillColor=#f8cecc;fontStyle=1" parent="1" vertex="1">
          <mxGeometry x="-304" y="955" width="170" height="30" as="geometry" />
        </mxCell>
        <mxCell id="isoSCwNyjUuJ1y2WLRkC-15" value="Partner" style="image;sketch=0;aspect=fixed;html=1;points=[];align=center;fontSize=12;image=img/lib/mscae/Two_User_Icon.svg;" parent="1" vertex="1">
          <mxGeometry x="-212" y="260" width="50" height="50" as="geometry" />
        </mxCell>
        <mxCell id="isoSCwNyjUuJ1y2WLRkC-17" style="edgeStyle=orthogonalEdgeStyle;rounded=0;orthogonalLoop=1;jettySize=auto;html=1;entryX=0;entryY=0.425;entryDx=0;entryDy=0;entryPerimeter=0;" parent="1" source="isoSCwNyjUuJ1y2WLRkC-15" target="ymEb2g0kcDg-jAVKu9gT-15" edge="1">
          <mxGeometry relative="1" as="geometry" />
        </mxCell>
        <mxCell id="isoSCwNyjUuJ1y2WLRkC-20" style="edgeStyle=orthogonalEdgeStyle;rounded=0;orthogonalLoop=1;jettySize=auto;html=1;entryX=0;entryY=0.75;entryDx=0;entryDy=0;" parent="1" source="isoSCwNyjUuJ1y2WLRkC-19" target="ymEb2g0kcDg-jAVKu9gT-15" edge="1">
          <mxGeometry relative="1" as="geometry">
            <Array as="points">
              <mxPoint x="-59" y="409" />
              <mxPoint x="-59" y="410" />
              <mxPoint x="40" y="410" />
            </Array>
          </mxGeometry>
        </mxCell>
        <mxCell id="isoSCwNyjUuJ1y2WLRkC-19" value="Mobile APP" style="sketch=0;outlineConnect=0;fontColor=#232F3E;gradientColor=none;fillColor=#232F3D;strokeColor=none;dashed=0;verticalLabelPosition=bottom;verticalAlign=top;align=center;html=1;fontSize=12;fontStyle=0;aspect=fixed;pointerEvents=1;shape=mxgraph.aws4.mobile_client;" parent="1" vertex="1">
          <mxGeometry x="-200" y="370" width="41" height="78" as="geometry" />
        </mxCell>
        <mxCell id="clGpNB9oHALhCs1MbPwn-25" value="Post" style="swimlane;startSize=0;rounded=1;shadow=0;fontColor=none;labelBackgroundColor=none;noLabel=1;" parent="1" vertex="1">
          <mxGeometry x="285" y="230" width="355" height="112.5" as="geometry" />
        </mxCell>
        <mxCell id="clGpNB9oHALhCs1MbPwn-26" value="&lt;b&gt;User Service&lt;br&gt;&lt;/b&gt;" style="text;html=1;align=center;verticalAlign=middle;resizable=0;points=[];autosize=1;strokeColor=none;fillColor=none;" parent="clGpNB9oHALhCs1MbPwn-25" vertex="1">
          <mxGeometry x="140" y="82.5" width="100" height="30" as="geometry" />
        </mxCell>
        <mxCell id="clGpNB9oHALhCs1MbPwn-27" value="&lt;div&gt;User Service&lt;/div&gt;&lt;div&gt;&lt;br&gt;&lt;/div&gt;" style="rounded=1;whiteSpace=wrap;html=1;fillColor=#e1d5e7;strokeColor=#9673a6;" parent="clGpNB9oHALhCs1MbPwn-25" vertex="1">
          <mxGeometry x="20" y="26.25" width="170" height="60" as="geometry" />
        </mxCell>
        <mxCell id="clGpNB9oHALhCs1MbPwn-28" value="User DB" style="shape=cylinder3;whiteSpace=wrap;html=1;boundedLbl=1;backgroundOutline=1;size=15;fillColor=#dae8fc;strokeColor=#6c8ebf;" parent="clGpNB9oHALhCs1MbPwn-25" vertex="1">
          <mxGeometry x="240" y="26.25" width="60" height="60" as="geometry" />
        </mxCell>
        <mxCell id="clGpNB9oHALhCs1MbPwn-29" style="edgeStyle=orthogonalEdgeStyle;rounded=0;orthogonalLoop=1;jettySize=auto;html=1;entryX=0.217;entryY=0.513;entryDx=0;entryDy=0;entryPerimeter=0;" parent="clGpNB9oHALhCs1MbPwn-25" source="clGpNB9oHALhCs1MbPwn-27" target="clGpNB9oHALhCs1MbPwn-28" edge="1">
          <mxGeometry relative="1" as="geometry" />
        </mxCell>
        <mxCell id="clGpNB9oHALhCs1MbPwn-36" value="&lt;div&gt;- Cung cấp dịch vụ cho thuê payment ( paypal, PM, WMZ ...) cho người dùng mà người dùng không cần có tài khoản &lt;br&gt;&lt;/div&gt;&lt;div&gt;-Tài khoản người dùng có số dư để thực hiện dịch vụ nạp rút ( = VNĐ, theo tỉ giá quy đổi của hệ thống ) &lt;br&gt;&lt;/div&gt;&lt;div&gt;&lt;br&gt;&lt;/div&gt;" style="text;html=1;whiteSpace=wrap;overflow=hidden;rounded=0;" parent="1" vertex="1">
          <mxGeometry x="-424" y="1010" width="410" height="60" as="geometry" />
        </mxCell>
        <mxCell id="clGpNB9oHALhCs1MbPwn-50" style="edgeStyle=orthogonalEdgeStyle;rounded=0;orthogonalLoop=1;jettySize=auto;html=1;" parent="1" source="clGpNB9oHALhCs1MbPwn-49" target="ymEb2g0kcDg-jAVKu9gT-15" edge="1">
          <mxGeometry relative="1" as="geometry" />
        </mxCell>
        <mxCell id="clGpNB9oHALhCs1MbPwn-49" value="FE Login, Phân Quyền" style="image;aspect=fixed;html=1;points=[];align=center;fontSize=12;image=img/lib/azure2/general/Browser.svg;" parent="1" vertex="1">
          <mxGeometry x="-200" y="90" width="65" height="52" as="geometry" />
        </mxCell>
        <mxCell id="clGpNB9oHALhCs1MbPwn-55" value="React JS" style="text;html=1;align=center;verticalAlign=middle;resizable=0;points=[];autosize=1;strokeColor=none;fillColor=none;fontStyle=1;fontColor=#FF33FF;" parent="1" vertex="1">
          <mxGeometry x="-214.5" y="170" width="70" height="30" as="geometry" />
        </mxCell>
        <mxCell id="clGpNB9oHALhCs1MbPwn-56" value="User" style="text;html=1;align=center;verticalAlign=middle;resizable=0;points=[];autosize=1;strokeColor=none;fillColor=none;fontStyle=1;fontColor=#FF33FF;" parent="1" vertex="1">
          <mxGeometry x="-207" y="470" width="50" height="30" as="geometry" />
        </mxCell>
        <mxCell id="T_EXf0S--1-C_7MDIEJj-1" value="&lt;h1 style=&quot;margin-top: 0px;&quot;&gt;SSO LOGIN&lt;/h1&gt;" style="text;html=1;whiteSpace=wrap;overflow=hidden;rounded=0;" vertex="1" parent="1">
          <mxGeometry x="40" y="490" width="300" height="120" as="geometry" />
        </mxCell>
        <mxCell id="T_EXf0S--1-C_7MDIEJj-18" style="edgeStyle=orthogonalEdgeStyle;rounded=0;orthogonalLoop=1;jettySize=auto;html=1;" edge="1" parent="1" source="T_EXf0S--1-C_7MDIEJj-2" target="T_EXf0S--1-C_7MDIEJj-17">
          <mxGeometry relative="1" as="geometry" />
        </mxCell>
        <mxCell id="T_EXf0S--1-C_7MDIEJj-2" value="Post" style="swimlane;startSize=0;rounded=1;shadow=0;fontColor=none;labelBackgroundColor=none;noLabel=1;" vertex="1" parent="1">
          <mxGeometry x="288" y="-90" width="355" height="112.5" as="geometry" />
        </mxCell>
        <mxCell id="T_EXf0S--1-C_7MDIEJj-3" value="&lt;b&gt;Card Service Có sẵn PHP&lt;br&gt;&lt;/b&gt;" style="text;html=1;align=center;verticalAlign=middle;resizable=0;points=[];autosize=1;strokeColor=none;fillColor=none;" vertex="1" parent="T_EXf0S--1-C_7MDIEJj-2">
          <mxGeometry x="105" y="82.5" width="170" height="30" as="geometry" />
        </mxCell>
        <mxCell id="T_EXf0S--1-C_7MDIEJj-4" value="&lt;div&gt;Card service&lt;/div&gt;" style="rounded=1;whiteSpace=wrap;html=1;fillColor=#e1d5e7;strokeColor=#9673a6;" vertex="1" parent="T_EXf0S--1-C_7MDIEJj-2">
          <mxGeometry x="20" y="26.25" width="170" height="60" as="geometry" />
        </mxCell>
        <mxCell id="T_EXf0S--1-C_7MDIEJj-5" value="Card DB" style="shape=cylinder3;whiteSpace=wrap;html=1;boundedLbl=1;backgroundOutline=1;size=15;fillColor=#dae8fc;strokeColor=#6c8ebf;" vertex="1" parent="T_EXf0S--1-C_7MDIEJj-2">
          <mxGeometry x="240" y="26.25" width="60" height="60" as="geometry" />
        </mxCell>
        <mxCell id="T_EXf0S--1-C_7MDIEJj-6" style="edgeStyle=orthogonalEdgeStyle;rounded=0;orthogonalLoop=1;jettySize=auto;html=1;entryX=0.217;entryY=0.513;entryDx=0;entryDy=0;entryPerimeter=0;" edge="1" parent="T_EXf0S--1-C_7MDIEJj-2" source="T_EXf0S--1-C_7MDIEJj-4" target="T_EXf0S--1-C_7MDIEJj-5">
          <mxGeometry relative="1" as="geometry" />
        </mxCell>
        <mxCell id="T_EXf0S--1-C_7MDIEJj-7" value="&lt;h1 style=&quot;margin-top: 0px;&quot;&gt;Card Service&lt;/h1&gt;&lt;p&gt;Thực Hiện&amp;nbsp; giao dịch card không liên quan user các thứ&lt;/p&gt;" style="text;html=1;whiteSpace=wrap;overflow=hidden;rounded=0;" vertex="1" parent="1">
          <mxGeometry x="300" y="-260" width="180" height="120" as="geometry" />
        </mxCell>
        <mxCell id="T_EXf0S--1-C_7MDIEJj-9" value="FE Card" style="image;aspect=fixed;html=1;points=[];align=center;fontSize=12;image=img/lib/azure2/general/Browser.svg;" vertex="1" parent="1">
          <mxGeometry x="-190" y="-80" width="65" height="52" as="geometry" />
        </mxCell>
        <mxCell id="T_EXf0S--1-C_7MDIEJj-12" style="edgeStyle=orthogonalEdgeStyle;rounded=0;orthogonalLoop=1;jettySize=auto;html=1;entryX=0.654;entryY=0.01;entryDx=0;entryDy=0;entryPerimeter=0;" edge="1" parent="1" source="T_EXf0S--1-C_7MDIEJj-9" target="ymEb2g0kcDg-jAVKu9gT-15">
          <mxGeometry relative="1" as="geometry" />
        </mxCell>
        <mxCell id="T_EXf0S--1-C_7MDIEJj-13" value="Dùng dc SSO để login, phân quyền&amp;nbsp;" style="edgeLabel;html=1;align=center;verticalAlign=middle;resizable=0;points=[];" vertex="1" connectable="0" parent="T_EXf0S--1-C_7MDIEJj-12">
          <mxGeometry x="-0.2144" y="4" relative="1" as="geometry">
            <mxPoint as="offset" />
          </mxGeometry>
        </mxCell>
        <mxCell id="T_EXf0S--1-C_7MDIEJj-14" value="User admin login qua sso, user&amp;nbsp; đối tác cũng login qua sso , admin có nhiều item key hơn . ACL" style="text;html=1;align=center;verticalAlign=middle;whiteSpace=wrap;rounded=0;" vertex="1" parent="1">
          <mxGeometry x="10" y="-160" width="230" height="60" as="geometry" />
        </mxCell>
        <mxCell id="T_EXf0S--1-C_7MDIEJj-15" value="Check Authorira ở API gateway&amp;nbsp;" style="text;html=1;align=center;verticalAlign=middle;whiteSpace=wrap;rounded=0;" vertex="1" parent="1">
          <mxGeometry x="288" y="388" width="230" height="60" as="geometry" />
        </mxCell>
        <mxCell id="T_EXf0S--1-C_7MDIEJj-16" value="" style="edgeStyle=orthogonalEdgeStyle;rounded=0;orthogonalLoop=1;jettySize=auto;html=1;" edge="1" parent="1" source="T_EXf0S--1-C_7MDIEJj-4" target="T_EXf0S--1-C_7MDIEJj-7">
          <mxGeometry relative="1" as="geometry" />
        </mxCell>
        <mxCell id="T_EXf0S--1-C_7MDIEJj-17" value="RabbiT MQ&amp;nbsp;&lt;div&gt;Grpc&lt;/div&gt;" style="shape=cylinder3;whiteSpace=wrap;html=1;boundedLbl=1;backgroundOutline=1;size=15;" vertex="1" parent="1">
          <mxGeometry x="730" y="-64" width="60" height="360" as="geometry" />
        </mxCell>
        <mxCell id="T_EXf0S--1-C_7MDIEJj-19" style="edgeStyle=orthogonalEdgeStyle;rounded=0;orthogonalLoop=1;jettySize=auto;html=1;entryX=0.007;entryY=0.567;entryDx=0;entryDy=0;entryPerimeter=0;" edge="1" parent="1" source="ymEb2g0kcDg-jAVKu9gT-41" target="T_EXf0S--1-C_7MDIEJj-17">
          <mxGeometry relative="1" as="geometry" />
        </mxCell>
        <mxCell id="T_EXf0S--1-C_7MDIEJj-20" style="edgeStyle=orthogonalEdgeStyle;rounded=0;orthogonalLoop=1;jettySize=auto;html=1;entryX=-0.007;entryY=0.661;entryDx=0;entryDy=0;entryPerimeter=0;" edge="1" parent="1" source="clGpNB9oHALhCs1MbPwn-25" target="T_EXf0S--1-C_7MDIEJj-17">
          <mxGeometry relative="1" as="geometry" />
        </mxCell>
        <mxCell id="T_EXf0S--1-C_7MDIEJj-21" value="&lt;h1 style=&quot;margin-top: 0px;&quot;&gt;Admin&lt;/h1&gt;&lt;div&gt;&lt;br&gt;&lt;/div&gt;&lt;div&gt;- Quản lý thẻ&lt;/div&gt;&lt;div&gt;- Quản lý Log&lt;/div&gt;" style="text;html=1;whiteSpace=wrap;overflow=hidden;rounded=0;" vertex="1" parent="1">
          <mxGeometry x="-410" y="-330" width="180" height="120" as="geometry" />
        </mxCell>
        <mxCell id="T_EXf0S--1-C_7MDIEJj-22" value="&lt;h1 style=&quot;margin-top: 0px;&quot;&gt;Admin&lt;/h1&gt;&lt;div&gt;&lt;br&gt;&lt;/div&gt;&lt;div&gt;- Quản lý thẻ&lt;/div&gt;&lt;div&gt;- Quản lý Log&lt;/div&gt;" style="text;html=1;whiteSpace=wrap;overflow=hidden;rounded=0;" vertex="1" parent="1">
          <mxGeometry x="-194" y="-330" width="180" height="120" as="geometry" />
        </mxCell>
        <UserObject label="Ví dụ SSO : https://id.dealtoday.vn/Login?ReturnUrl=http%3a%2f%2fid.dealtoday.vn%2f" link="https://id.dealtoday.vn/Login?ReturnUrl=http%3a%2f%2fid.dealtoday.vn%2f" id="T_EXf0S--1-C_7MDIEJj-23">
          <mxCell style="text;whiteSpace=wrap;fontStyle=1" vertex="1" parent="1">
            <mxGeometry x="58" y="620" width="570" height="40" as="geometry" />
          </mxCell>
        </UserObject>
      </root>
    </mxGraphModel>
  </diagram>
</mxfile>
